<svg id="Layer_1" data-name="Layer 1" xmlns="http://www.w3.org/2000/svg" viewBox="0 0 593 661.35"><title>man</title><ellipse cx="319" cy="237" rx="233" ry="237" style="fill:#f2f2f2;opacity:0.1"/><path d="M387.33,1079.77c7.07,3.21-3.07-11.86,10.69-12.37,4.37-.16,7.42,9.07,18.77,8.84,1.39,0,10-2,10.81-1.92,2.2.18,6.67.69,12.4,1.41l-1.69-21.39c-9.68,1.4-13.16,4.31-16.93,2.28-8.3-4.51-21.77-7.3-29.52-4.85C377.54,1056.3,374.7,1074,387.33,1079.77Z" transform="translate(-252 -801)" style="fill:#e6b496"/><path d="M617.76,992.42a29.67,29.67,0,0,1-2.11,6.86s.06-.08.09-.12c-.44,1.13-1,2.25-1.56,3.38s-1.29,2.26-2,3.45c-8.76,13.19-64.39,50.53-72.86,53.81-17.53,6.75-94.3,17.7-108.55,19.42-1.27.15-2,.23-2.23.23l-.6-5.09L426,1057.18l-.68-6.29c13.71-1.87,89.12-24,98.13-28.64,4.56-2.4,54-41.23,59.44-45.42,6.22-4.88,15.88-12.67,24.74-6.83C615.66,975.41,619.35,983.34,617.76,992.42Z" transform="translate(-252 -801)" style="fill:#ff9faa"/><path d="M615.74,999.16c-.44,1.13-1,2.25-1.56,3.38s-1.29,2.26-2,3.45c-8.76,13.19-64.39,50.53-72.86,53.81-17.53,6.75-94.3,17.7-108.55,19.42-1.27.15-2,.23-2.23.23l-.53-5h.53c.36,0,.9-.06,1.42-.06,2.16-.15,5.63-.54,9.81-1.14,25.87-3.21,82.91-13,97.08-18.51C545.2,1051.49,606.52,1012.88,615.74,999.16Z" transform="translate(-252 -801)" style="opacity:0.2"/><rect x="426.35" y="106.64" width="9.99" height="193.13" style="fill:#575757"/><polygon points="593 164.78 486.48 164.78 486.48 121.5 593 121.5 573 143.26 593 164.78" style="fill:#e46403"/><polygon points="537.89 106.64 486.48 121.5 486.48 164.78 537.89 149.93 537.89 106.64" style="fill:#cf5900"/><rect x="426.35" y="106.64" width="111.54" height="43.29" style="fill:#e87c00"/><path d="M618.39,953.12c-2.68-4.42-5.16-12.82-7.16-21-.69-2.87-1.3-5.66-1.88-8.32-1.65-7.69-2.67-13.71-2.67-13.71s-36.61,21.71-27.49,33c.59.79,1.13,1.6,1.68,2.51a26.92,26.92,0,0,1,3,7.93c2.33,10.47,0,21.7,0,21.7S611.61,962.1,618.39,953.12Z" transform="translate(-252 -801)" style="fill:#ffcdaa"/><path d="M571.11,859c-5.34,4.21-7.19,12.16-8.71,18.36s-3.33,10.2-2.59,12a43.25,43.25,0,0,0,1.71,4.32c.68,1.18-7.54,20.56-6.72,22.11s5.35,1.81,6.22,2.07c2.05.55,2,2.91,2,4.41s-2.72,3.86-2.17,4.75c1.4,2.16,4.79,1.39,4.79,1.39s-4.6.94-3.28,3.13c.6,1,2.06.87,3.07,1.9s-2,7.71-.53,9.55c5.16,6.73,21,.39,32.38-4.92a104.26,104.26,0,0,1,17.18-13.7c3.91-2.82,19.27-32.85,13.95-46.15s-15.15-24.36-26.46-25.62S578.71,853,571.11,859Z" transform="translate(-252 -801)" style="fill:#ffcdaa"/><path d="M580.87,945.56a26.92,26.92,0,0,1,3,7.93c5.37-2.28,26.06-27.08,25.48-29.74-3,2.66-6.26,7.81-11.41,12.56C593.34,940.57,586.52,943.35,580.87,945.56Z" transform="translate(-252 -801)" style="opacity:0.2"/><path d="M553,860.14c3.74,1.3,6.95,2.38,11,0s13.69-11.71,28-13.56c14.6-1.89,27.67,1.42,36.85,14.52,4,5.61,8.19,18.14,5.88,29.72s-8.56,21.41-12.48,27.94c-5.33,8.84-11.61,15.94-11,18-5.11-6.44-5-23.1-5.52-26.9,2.2-2,9.15-15.15,2.9-19.32s-13,3.94-16.18,13.62c-2.61-10-2.91-21.32-7.75-28.59-3.9-3.76-18.16-2.55-22.31-4.54C555.88,867.94,553,862.85,553,860.14Z" transform="translate(-252 -801)" style="fill:#575757"/><path d="M565.23,1135.48l64.6,2.5s3.25-113.61,4.47-148.89c.55-16.23-17.44-38.34-18.65-41.91-9.95,17-26.94,25.65-30.9,21-2.28,2-18.43,17.61-22.76,27.33s-1.94,39.42-.39,52.9S567.52,1127.1,565.23,1135.48Z" transform="translate(-252 -801)" style="fill:#ff9faa"/><path d="M634.3,989.09c-1.22,35.28-4.47,148.89-4.47,148.89l-7.07-.26C624,1098.09,634.55,982.11,634.3,989.09Z" transform="translate(-252 -801)" style="opacity:0.2"/><path d="M486.51,1329.39c-.86-4-2-8.25-3.12-11.82a58.74,58.74,0,0,0-2.79-7.63c-.78-1.5-1.56-2.41-2.37-2.53s-31.93-1-32.71,0c-1.87,2.31-11.6,13.51-18.49,17.06-5.08,2.63-8.59,4-13.5,4.58a51.3,51.3,0,0,1-6,.29c-2.49,0-5.9.7-7.57,3.13a7.28,7.28,0,0,0-.43,7,9.94,9.94,0,0,0,.61,1c2,2.8,6.95,7.94,17.44,10.62a27.08,27.08,0,0,0,7.57.43l13.75-1.26a20.88,20.88,0,0,0,7.24-2.08,38.68,38.68,0,0,1,4.28-2.23,2.35,2.35,0,0,1,2.72.38c1.25,1.13,2.18,2.33,2.48,2.33a3.49,3.49,0,0,1,.52,0l17.18-1.59c6.54-1.55,12.34-3.93,14.17-6.37a19.89,19.89,0,0,0-.23-7.31C487.06,1332.16,486.79,1330.8,486.51,1329.39Z" transform="translate(-252 -801)" style="fill:#2d2d2d"/><path d="M441.61,1162.44c1.61-11.11,8.17-25.31,14.74-27.27,24.88-7.44,85.07,1.93,93.93,1.93a36.63,36.63,0,0,0,16.27-3.93l64.26,4c10,40.09-12.63,67.24-18.6,69.47-27.48,10.3-116.45-15-116.45-15-5.84,0-3.67,5-4.39,11.12-6.13,54.32-7.25,112.65-7.25,112.65l-47.64-8S434.4,1212.87,441.61,1162.44Z" transform="translate(-252 -801)" style="fill:#a67c52"/><path d="M630.81,1137.14l-.58,0a75.59,75.59,0,0,1-7.86,46c-5.66,10.81-22.06,17.87-33.75,17.87l-96.81-15c-5.86,0-3.65,5-4.32,11.11-5.7,51.91-6,102.73-7.3,117.66l3.93.66s1.12-58.33,7.25-112.65c.72-6.14-1.45-11.12,4.39-11.12,0,0,89,25.3,116.45,15C618.18,1204.38,640.81,1177.23,630.81,1137.14Z" transform="translate(-252 -801)" style="opacity:0.2"/><path d="M406.23,1390.47c0,2.54-.16,5-.37,7.48A71.82,71.82,0,0,1,263,1398c-.24-2.46-.39-4.94-.39-7.48a71.8,71.8,0,0,1,71.75-71.81h.07a71.27,71.27,0,0,1,51.21,21.58,58.23,58.23,0,0,1,4.93,5.47,71.16,71.16,0,0,1,12.09,22.19A73,73,0,0,1,406.23,1390.47Z" transform="translate(-252 -801)" style="fill:#575757"/><path d="M387.19,1390.48a52.79,52.79,0,1,1-52.77-52.79A52.78,52.78,0,0,1,387.19,1390.48Z" transform="translate(-252 -801)" style="fill:#d3d4d6"/><path d="M374,1390.48A39.56,39.56,0,1,1,334.42,1351,39.54,39.54,0,0,1,374,1390.48Z" transform="translate(-252 -801)" style="fill:#7d7d7d"/><path d="M328.56,1113.56c0,15.41-5.4,27.89-12.07,27.89s-12-12.48-12-27.89,5.39-27.88,12-27.88S328.56,1098.15,328.56,1113.56Z" transform="translate(-252 -801)" style="fill:#ffbe56"/><path d="M316.49,1082.68v62.15s34.27,1.38,40.27-12.38,3.78-38.1-5.76-43.59S325.31,1081.27,316.49,1082.68Z" transform="translate(-252 -801)" style="fill:#575757"/><path d="M633.08,1258.65H538.7c-10.35,0-18.76-11.37-18.76-25.37s8.41-25.37,18.76-25.37h94.38c10.35,0,18.74,11.35,18.74,25.37S643.43,1258.65,633.08,1258.65Z" transform="translate(-252 -801)" style="fill:#575757"/><path d="M526.19,1244.92c0-16.8,10.06-30.42,22.48-30.42h96.91c-3.31-4-7.68-6.59-12.5-6.59H538.7c-10.35,0-18.76,11.35-18.76,25.37,0,8.07,2.84,15.17,7.19,19.82A39.4,39.4,0,0,1,526.19,1244.92Z" transform="translate(-252 -801)" style="opacity:0.2"/><path d="M416,1309.42c0,3.45,1.41,8.77,3.3,14.25,2.32,7.13,5.46,14.46,7.34,18.67v.06c.89,2,1.49,3.3,1.49,3.3h-36.8s-31.56-148.42,5.92-192.2c0,0,5.93,6.24,12.6,14,8.53,9.9,18.28,22.2,18.28,26.77v95.27S416,1299.38,416,1309.42Z" transform="translate(-252 -801)" style="fill:#575757"/><rect x="120.87" y="544.71" width="313.5" height="44.75" style="fill:#ff9faa"/><path d="M789.72,1390.47a71.76,71.76,0,0,1-131.1,40.47,71.72,71.72,0,0,1,3.15-85.23A72.42,72.42,0,0,1,702,1320.37a74.11,74.11,0,0,1,15.89-1.71,71.64,71.64,0,0,1,71.81,71.81Z" transform="translate(-252 -801)" style="fill:#575757"/><path d="M770.69,1390.48a52.79,52.79,0,1,1-52.77-52.79A52.78,52.78,0,0,1,770.69,1390.48Z" transform="translate(-252 -801)" style="fill:#d3d4d6"/><path d="M757.45,1390.48A39.55,39.55,0,1,1,717.92,1351,39.54,39.54,0,0,1,757.45,1390.48Z" transform="translate(-252 -801)" style="fill:#7d7d7d"/><path d="M370.55,1193.39a339.72,339.72,0,0,0,1.12,63,201.66,201.66,0,0,0,5.34,29.75c2.38,9.23,5.85,18.3,9.36,23.32a25.1,25.1,0,0,1,4,8.7,25.4,25.4,0,0,1-4.71,22,25.12,25.12,0,0,1-5.41,5.17c-.15.08-.3.24-.45.3a22.8,22.8,0,0,1-6.9,3.3,25.19,25.19,0,0,1-5.32,1,25.8,25.8,0,0,1-23.3-10.79c-.38-.6-.84-1.21-1.21-1.81l-.3-.51a105.93,105.93,0,0,1-8.39-18.29,147.43,147.43,0,0,1-5.1-18c-.3-1.06-.52-2.18-.76-3.23a270,270,0,0,1-4.72-36.88,400.89,400.89,0,0,1,2.48-71.51,360.9,360.9,0,0,1,15.37-69.87c7.72-22.71,18.28-45.94,35.15-65.59l.15-.14a18.77,18.77,0,0,1,26.47-2,6.39,6.39,0,0,1,1,1A18.84,18.84,0,0,1,406,1077.2c-11.86,15.16-19.51,34-25.13,54A318.35,318.35,0,0,0,370.55,1193.39Z" transform="translate(-252 -801)" style="fill:#ff9faa"/><path d="M615.65,999.28s.06-.08.09-.12c-.44,1.13-1,2.25-1.56,3.38s-1.29,2.26-2,3.45c-8.76,13.19-64.39,50.53-72.86,53.81-17.53,6.75-94.3,17.7-108.55,19.42l-.74-4.65-.07-.21-1.21-7.29a98.37,98.37,0,0,0,10.35-2.76c24.81-7.43,78.78-26.62,86.05-30.88,4.5-2.64,51.88-44.08,57-48.51,6-5.16,15.23-13.49,24.37-8.09,6.46,3.74,10.27,9.14,11.24,15.59A29.67,29.67,0,0,1,615.65,999.28Z" transform="translate(-252 -801)" style="opacity:0.2"/><path d="M350.35,1332a164.44,164.44,0,0,1-5.68-20c-.32-1.17-.57-2.42-.84-3.59a298.48,298.48,0,0,1-5.25-41,445.42,445.42,0,0,1,2.77-79.52,400.68,400.68,0,0,1,17.08-77.69c6.28-18.45,14.28-37.21,25.43-54.49a17.48,17.48,0,0,0-6.59,4.74l-.15.14c-16,18.67-26.08,40.78-33.43,62.37a342.09,342.09,0,0,0-14.61,66.46,379.65,379.65,0,0,0-2.36,68,251.24,251.24,0,0,0,4.49,35.07c.22,1,.42,2.07.7,3.07a141,141,0,0,0,4.87,17.1,99.45,99.45,0,0,0,8,17.4l.29.51c.36.56.77,1.12,1.12,1.71a24.71,24.71,0,0,0,6.78,6.42C352,1336.5,351.1,1334.25,350.35,1332Z" transform="translate(-252 -801)" style="fill:#ff7fb5;opacity:0.2"/><path d="M426.62,1342.34v.06a17.45,17.45,0,0,1-.07,3.3H391.31s-31.56-148.42,5.92-192.2c0,0,5.93,6.24,12.6,14-1.81,11.48-3,23-3.76,34.64a404.88,404.88,0,0,0,1.14,68.73,253,253,0,0,0,5.46,32.69,111.9,111.9,0,0,0,6.61,20.09,48.9,48.9,0,0,0,3.28,6.3A25.16,25.16,0,0,1,426.62,1342.34Z" transform="translate(-252 -801)" style="opacity:0.2"/><path d="M434.83,1074.38c-12.37,17-20.14,37.94-25.87,59.86a375.22,375.22,0,0,0-10.38,67.9,409.8,409.8,0,0,0,1.13,68.71,255.76,255.76,0,0,0,5.45,32.7c2.47,10.22,6,20.38,9.88,26.38a25.79,25.79,0,1,1-43.32,28c-.35-.54-.67-1.09-1-1.63l-.16-.31c-8.21-15.11-11.35-28.61-14.09-42a303.26,303.26,0,0,1-4.67-39.28,456.3,456.3,0,0,1,2.42-76.58A417.74,417.74,0,0,1,369.54,1123c7.7-24.5,18.1-49.55,35.34-71.18l.14-.18a18.74,18.74,0,0,1,29.81,22.71Z" transform="translate(-252 -801)" style="fill:#999"/><path d="M817.91,1258.62v15.21h-87.1l-16.12,26.08L702,1320.37l-15.65,25.34H519.64s14.32-7.19,20.92-22.48c9.07-21.07-4.86-26.77-10.95-41.15-10-23.46,19.79-23.46,19.79-23.46Z" transform="translate(-252 -801)" style="fill:#ff9faa"/><path d="M548.05,1323.23c9.08-21.07-4.87-26.77-10.93-41.15-10-23.46,19.78-23.46,19.78-23.46h-7.5s-29.76,0-19.79,23.46c6.09,14.38,20,20.08,10.95,41.15-6.6,15.29-20.92,22.48-20.92,22.48h7.51S541.47,1338.52,548.05,1323.23Z" transform="translate(-252 -801)" style="opacity:0.2"/><path d="M782.69,1359.35l-124.07,71.59a70.92,70.92,0,0,1-12.52-40.47H628a93.87,93.87,0,0,1,11.19-44.76,86.59,86.59,0,0,1,33.06-34.18,87.54,87.54,0,0,1,42.42-11.62L702,1320.37a74.11,74.11,0,0,1,15.89-1.71A72,72,0,0,1,782.69,1359.35Z" transform="translate(-252 -801)" style="opacity:0.2"/><path d="M842.43,1221.13c-1.43,18.44-4.58,32.91-10.42,37.49H630.51l4.74-36.51s.07-.3.21-1Z" transform="translate(-252 -801)" style="fill:#e6e6e6"/><path d="M842.43,1221.13h-207c1.81-10.63,10.81-93.67,24.14-112.44,5-7,14.26-16.41,26.77-16.64s113.78.23,122.17,0,30,2.63,31,13.87C840.09,1113.78,845.88,1178.11,842.43,1221.13Z" transform="translate(-252 -801)" style="fill:#c7b299"/><path d="M691.94,1125.53c6.62-9.34,18.94-21.83,35.57-22.12,10.2-.13,64.11,0,107.23.07-5.51-6.72-20.71-8.54-27.4-8.42-8,.21-104.2-.15-116.17,0s-20.7,9.15-25.44,15.82c-12.68,17.85-21.25,96.8-23,106.92H668C673.61,1181.71,681.82,1139.75,691.94,1125.53Z" transform="translate(-252 -801)" style="fill:#fff;opacity:0.30000000000000004"/><polygon points="543.43 517.19 532.17 529.64 490.35 479.27 485.03 472.82 520.93 472.82 524.22 479.27 543.43 517.19" style="fill:#575757"/><path d="M417.66,1091.51a14.16,14.16,0,1,1-14.15-14.17A14.15,14.15,0,0,1,417.66,1091.51Z" transform="translate(-252 -801)" style="fill:#575757"/><path d="M789.27,1349.28,646.53,1431.7a82.41,82.41,0,1,1,142.74-82.42Z" transform="translate(-252 -801)" style="fill:#ff9faa"/><path d="M704,1316.31a72.2,72.2,0,0,0-24.2,8.66,73,73,0,0,0-26.67,99.72l22.09-12.77A87.57,87.57,0,0,1,704,1316.31Z" transform="translate(-252 -801)" style="fill:#fff;opacity:0.2"/><path d="M431.5,1390.47H406.23c0,2.54-.16,5-.37,7.48H263c-.24-2.46-.39-4.94-.39-7.48a71.8,71.8,0,0,1,71.75-71.81,147.43,147.43,0,0,1-5.1-18c1.73-.08,3.38-.16,5.1-.16a99.6,99.6,0,0,1,20.24,2.1,97.16,97.16,0,0,1,35.75,15.6,98.79,98.79,0,0,1,26.24,27.5c.74,1.12,1.41,2.26,2,3.38A95.17,95.17,0,0,1,431.5,1390.47Z" transform="translate(-252 -801)" style="opacity:0.2"/><path d="M416.85,1390.47H252a82.43,82.43,0,1,1,164.85,0Z" transform="translate(-252 -801)" style="fill:#ff9faa"/><path d="M333.07,1312.39a73.8,73.8,0,0,0-72.6,73.78h26.84A92.6,92.6,0,0,1,333.07,1312.39Z" transform="translate(-252 -801)" style="fill:#ff7fb5;opacity:0.2"/><path d="M409.86,988.64v41.82c12.65,5,25.64-6.55,29.15-13.2,2.14-4,8.26-18.16,3.3-28.62C439.82,983.36,419.76,974.89,409.86,988.64Z" transform="translate(-252 -801)" style="fill:#575757"/><polygon points="524.22 479.27 490.35 479.27 485.03 472.82 520.93 472.82 524.22 479.27" style="opacity:0.2"/><polygon points="157.86 213.47 151.51 218.46 144.01 290.51 159.61 290.51 157.86 213.47" style="fill:#575757"/><path d="M395.86,1105.23c7.33,2.56-4.1-11.57,9.58-13.27,4.34-.55,8.17,8.4,19.46,7.16,1.38-.14,9.83-2.81,10.6-2.84,2.21,0,6.7.09,12.46.32l-3.51-21.17c-9.53,2.25-12.76,5.46-16.69,3.76-8.67-3.76-22.32-5.39-29.83-2.26C384.05,1082.69,382.79,1100.59,395.86,1105.23Z" transform="translate(-252 -801)" style="fill:#ffcdaa"/><path d="M431.15,1073.1c13.53-3,86.71-31.65,95.21-37,4.41-2.81,50.3-45.83,55.31-50.48,5.77-5.4,14.72-14,24-9,12.6,6.9,16,20.12,7.66,35.45-7.55,13.9-59.74,56-67.86,60-18.44,9.1-107.15,29.28-108.65,29.25Z" transform="translate(-252 -801)" style="fill:#ff9faa"/><path d="M542.61,1067.23c8.07-4,65.8-47.78,73.75-62.24a38.21,38.21,0,0,1-3,7.1c-7.55,13.9-59.74,56-67.86,60-18.44,9.1-107.15,29.28-108.65,29.25l-1-5C446.2,1095.49,525.93,1075.47,542.61,1067.23Z" transform="translate(-252 -801)" style="opacity:0.2"/></svg>